<?xml version="1.0" encoding="UTF-8" standalone="no"?>
<!DOCTYPE svg PUBLIC "-//W3C//DTD SVG 1.1//EN" "http://www.w3.org/Graphics/SVG/1.1/DTD/svg11.dtd">
<svg
   xmlns:svg="http://www.w3.org/2000/svg"
   xmlns="http://www.w3.org/2000/svg"
   version="1.1"
   width="892.913"
   height="277.441"
   id="svg2985"
   xml:space="preserve">
   <defs
     id="defs2989" /><path
     d="m 289.591,247.422 5.295,0 0,-243.91436 -5.295,0 0,243.91436 z"
     id="path7777"
     style="fill:#878c95;fill-opacity:1;fill-rule:nonzero;stroke:none" /><path
     d="m 201.801,117.169 -42.5,-113.67066 -64.5633,0 -91.20373,243.88766 65.24093,0 15.3745,-43.717 85.0536,0 15.027,43.717 66.266,0 -34.593,-92.504 -89.73,0 0,-0.08 c -20.298,-0.467 -36.6333,-16.985 -36.6333,-37.393 0,-20.7007 16.7843,-37.4846 37.4753,-37.4846 20.618,0 37.329,16.6557 37.457,37.2466"
     id="path7789"
     style="fill:#050301;fill-opacity:1;fill-rule:nonzero;stroke:none" /><path
     d="m 334.031,247.377 10.149,0 11.97,-30.877 45.199,0 12.099,30.877 10.158,0 -38.949,-99.303 -10.57,0 -40.056,99.303 z m 44.925,-89.84 19.19,50.9 -39.086,0 19.896,-50.9 z m 54.241,89.84 8.761,0 0,-71.766 -8.761,0 0,71.766 z m 0,-85.255 8.761,0 0,-14.048 -8.761,0 0,14.048 z m 26.978,85.255 8.767,0 0,-38.253 c 0,-14.871 10.845,-26.558 26.704,-25.725 l 0,-8.758 c -12.94,-0.558 -22.668,6.26 -27.125,17.8 l -0.274,0 0,-16.83 -8.072,0 0,71.766 z m 101.939,-35.883 c 0,14.88 -6.818,30.603 -23.501,30.603 -18.633,0 -25.167,-15.723 -25.167,-30.603 0,-16.271 5.839,-30.593 25.167,-30.593 16.683,0 23.501,15.713 23.501,30.593 m -57.435,62.45 8.767,0 0,-40.194 0.275,0 c 3.752,10.287 14.193,15.714 24.892,15.714 21.835,0 32.268,-17.663 32.268,-37.97 0,-20.307 -10.433,-37.97 -32.268,-37.97 -11.54,0 -21.552,5.986 -25.588,15.714 l -0.275,0 0,-13.627 -8.071,0 0,98.333 z m 108.756,-100.42 c -21.973,0 -33.934,17.388 -33.934,37.97 0,20.591 11.961,37.97 33.934,37.97 21.982,0 33.934,-17.379 33.934,-37.97 0,-20.582 -11.952,-37.97 -33.934,-37.97 m 0,7.377 c 16.83,0 25.176,15.301 25.176,30.593 0,15.301 -8.346,30.603 -25.176,30.603 -16.829,0 -25.166,-15.302 -25.166,-30.603 0,-15.292 8.337,-30.593 25.166,-30.593 m 45.62,66.476 8.767,0 0,-38.253 c 0,-14.871 10.845,-26.558 26.695,-25.725 l 0,-8.758 c -12.931,-0.558 -22.668,6.26 -27.116,17.8 l -0.274,0 0,-16.83 -8.072,0 0,71.766 z m 59.805,-93.318 -8.767,0 0,21.552 -12.51,0 0,7.376 12.51,0 0,49.098 c -0.137,12.235 3.899,16.125 15.585,16.125 2.636,0 5.143,-0.275 7.779,-0.275 l 0,-7.504 c -2.498,0.275 -5.006,0.412 -7.504,0.412 -6.26,-0.412 -7.093,-3.761 -7.093,-9.454 l 0,-48.402 14.597,0 0,-7.376 -14.597,0"
     id="path7793"
     style="fill:#878c95;fill-opacity:1;fill-rule:nonzero;stroke:none" /><path
     d="m 334.031,102.838 10.149,0 11.97,-30.8771 45.199,0 12.099,30.8771 10.158,0 -38.949,-99.30282 -10.57,0 -40.056,99.30282 z m 44.925,-89.8493 19.19,50.9006 -39.086,0 19.896,-50.9006 z m 110.147,18.0833 -8.758,0 0,37.6859 c 0,14.6057 -6.534,28.7905 -21.561,28.7905 -13.91,0 -18.77,-6.8087 -19.191,-19.7489 l 0,-46.7275 -8.758,0 0,46.5903 c 0,16.6831 7.084,27.2527 25.167,27.2527 10.716,0 20.17,-5.4173 24.755,-15.0172 l 0.284,0 0,12.9402 8.062,0 0,-71.766 z m 75.939,22.531 c -1.949,-16.4178 -13.773,-24.6175 -29.074,-24.6175 -21.964,0 -33.925,17.3787 -33.925,37.9695 0,20.5817 11.961,37.96 33.925,37.96 15.997,0 27.271,-10.5696 29.632,-27.811 l -8.767,0 c -1.107,11.961 -10.012,20.4444 -20.865,20.4444 -16.821,0 -25.167,-15.3013 -25.167,-30.5934 0,-15.3013 8.346,-30.6026 25.167,-30.6026 11.403,0 17.946,6.5342 20.307,17.2506 l 8.767,0 z m 14.185,49.235 8.758,0 0,-27.2623 14.185,-11.8237 28.378,39.086 10.982,0 -32.68,-45.1992 30.594,-26.5668 -11.687,0 -39.772,34.7665 0,-62.30332 -8.758,0 0,99.30282 z m 72.461,0 8.758,0 0,-99.30282 -8.758,0 0,99.30282 z m 73.569,-27.8205 c 0.137,14.0475 -11.677,22.5309 -25.038,22.5309 -8.2,0 -15.988,-5.4176 -15.988,-14.1848 0,-14.0475 18.495,-13.9102 33.385,-16.555 2.361,-0.4118 6.25,-1.1073 7.376,-3.1939 l 0.265,0 0,11.4028 z M 687.288,53.0447 c 0.283,-11.6864 8.346,-16.6923 19.199,-16.6923 10.287,0 18.77,2.9194 18.77,14.7431 0,7.9343 -4.026,8.9044 -11.265,9.7372 -18.907,2.2238 -38.528,2.9193 -38.528,23.0892 0,14.4593 10.844,20.9931 24.068,20.9931 13.773,0 20.024,-5.28 26.146,-14.5962 l 0.275,0 c 0,7.5133 1.391,12.5192 10.295,12.5192 2.361,0 3.761,-0.137 5.702,-0.558 l 0,-7.3763 c -0.696,0.2837 -1.812,0.5582 -2.783,0.5582 -3.468,0 -5.143,-1.9493 -5.143,-5.2896 l 0,-38.1068 c 0,-19.1906 -13.773,-23.08 -26.429,-23.08 -16.409,0 -28.233,7.2297 -29.065,24.0592 l 8.758,0 z m 64.811,49.7933 8.757,0 0,-41.8681 c 0.293,-14.0475 8.63,-24.6175 22.541,-24.6175 14.184,0 18.22,9.3162 18.22,21.6982 l 0,44.7874 8.758,0 0,-46.1784 c 0,-17.1042 -6.113,-27.6741 -26.283,-27.6741 -10.149,0 -19.749,5.8386 -22.943,14.4593 l -0.293,0 0,-12.3728 -8.757,0 0,71.766 z m 79.837,-35.883 c 0,-14.8895 6.818,-30.6026 23.501,-30.6026 18.642,0 25.176,15.7131 25.176,30.6026 0,14.8803 -6.534,30.5934 -25.176,30.5934 -16.683,0 -23.501,-15.7131 -23.501,-30.5934 m 57.435,-63.41982 -8.758,0 0,41.16342 -0.275,0 c -3.761,-10.2954 -14.194,-15.7131 -24.901,-15.7131 -21.835,0 -32.268,17.6624 -32.268,37.9695 0,20.3072 10.433,37.96 32.268,37.96 10.433,0 21.836,-6.3965 25.597,-15.7127 l 0.274,0 0,13.6357 8.063,0"
     id="path7797"
     style="fill:#878c95;fill-opacity:1;fill-rule:nonzero;stroke:none" /></svg>
