<?xml version="1.0" encoding="utf-8"?>
<!-- Generator: Adobe Illustrator 18.1.1, SVG Export Plug-In . SVG Version: 6.00 Build 0)  -->
<!DOCTYPE svg PUBLIC "-//W3C//DTD SVG 1.1//EN" "http://www.w3.org/Graphics/SVG/1.1/DTD/svg11.dtd">
<svg version="1.1" xmlns="http://www.w3.org/2000/svg" xmlns:xlink="http://www.w3.org/1999/xlink" x="0px" y="0px"
	 viewBox="0 230 600 300" xml:space="preserve">
<g id="Layer_1">
	<g id="Artwork">
		<g>
			<path fill="#000" d="M432.4,398.9c0,29.3-24.4,53.2-53.7,53.2c-29.3,0-53.2-23.9-53.2-53.2v-78.1c0-12.6-11.2-12.6-11.2-12.6
				v-4.4h45.5v4.4c0,0-11.2,0-11.2,12.3v83.4c0,17.8,14.3,32.1,32.1,32.1s31.8-14.3,31.8-32.1c0-19.5,0-83.1,0-83.1
				c0-12.9-11.5-12.9-11.5-12.9v-4.4h42.5v4.4c0,0-11.2,0-11.2,12.9v78.1H432.4z"/>
			<path fill="#000" d="M220.2,318.8v109.7c0,15.4,12.6,15.4,12.6,15.4v4.7h-46.1v-4.7c0,0,10.1,0.3,10.1-14.3V320.7
				c0-12.6-12.3-12.6-12.3-12.6v-4.4H227c32.4,0,47.2,13.4,52.4,28c5.2,13.7,2.5,31-8.5,42c-5.5,5.5-12.9,8.2-12.9,8.2
				s3.3,1.4,10.1,9.9c0,0,21.1,27.7,31.5,40c6.6,7.7,14,12.1,23.9,12.1l0.8,3.3c-11,6.3-24.1,6.6-35.1-0.5
				c-20.6-13.7-37.6-46.1-46.1-54.6c-9-9-15.4-9.3-15.4-9.3l0.5-4.1c2.7,0.3,17.8,0.3,26.3-7.7c8.5-8,13.4-28.2-1.4-43.9
				C240.7,313.3,222.1,317.2,220.2,318.8z"/>
			<path fill="#000" d="M80.3,387.9H116l-19.7-46.6L80.3,387.9z M97.6,292.2l64.2,143.1c4.9,8.8,12.1,8.5,12.1,8.5v4.7h-47.4
				v-4.7c0,0,14,0.3,7.7-14l-13.2-30.7H76.2l-11,31.5c-4.9,13.4,8,13.2,8,13.2v4.7h-40v-4.7c0,0,9,0,14-14L97.6,292.2z"/>
			<path fill="#000" d="M498.5,318.8V429c0,14.8,12.1,14.8,12.1,14.8v4.7h-45.8v-4.7c0,0,10.4,0.3,10.4-14l-0.3-109.1
				c0-12.6-11.2-12.6-11.2-12.6v-4.4h42c32.4,0,47.4,13.4,52.6,28c7.7,21.4-2.2,37-10.4,44.7c-20.6,18.9-41.7,3-41.7,3l0.8-3
				c2.7,0.5,17.8,2.7,26.3-5.2c8.5-8,13.4-28.2-1.4-43.9C519.3,313.3,500.4,317.2,498.5,318.8z"/>
		</g>
	</g>
</g>
</svg>
